# MagicaVoxel @ Ephtracy

# group
o 

# material
mtllib Player,Monster.mtl
usemtl palette

# normals
vn -1 0 0
vn 1 0 0
vn 0 0 1
vn 0 0 -1
vn 0 -1 0
vn 0 1 0

# texcoords
vt 0.00195313 0.5
vt 0.0292969 0.5
vt 0.0996094 0.5
vt 0.138672 0.5
vt 0.841797 0.5
vt 0.876953 0.5
vt 0.955078 0.5
vt 0.958984 0.5
vt 0.994141 0.5

# verts
v 0 2 0
v 0 2 -1
v 0 2.4 0
v 0 2.4 -0.1
v 0 2.5 0
v 0 2.5 -0.1
v 0 3 0
v 0 3 -1
v 1 2 0
v 1 2 -1
v 1 2.4 0
v 1 2.4 -0.1
v 1 2.5 0
v 1 2.5 -0.1
v 1 3 0
v 1 3 -1
v 0 2 0
v 0 2.4 0
v 0 2.5 0
v 0 3 0
v 0.1 2.6 0
v 0.1 2.7 0
v 0.1 2.8 0
v 0.2 2.4 0
v 0.2 2.5 0
v 0.2 2.6 0
v 0.2 2.7 0
v 0.3 2.1 0
v 0.3 2.4 0
v 0.3 2.6 0
v 0.3 2.7 0
v 0.3 2.8 0
v 0.3 2.9 0
v 0.4 2 0
v 0.4 2.1 0
v 0.4 2.2 0
v 0.4 2.3 0
v 0.4 2.4 0
v 0.4 2.5 0
v 0.4 2.7 0
v 0.4 2.9 0
v 0.6 2 0
v 0.6 2.1 0
v 0.6 2.2 0
v 0.6 2.3 0
v 0.6 2.4 0
v 0.6 2.5 0
v 0.6 2.7 0
v 0.6 2.9 0
v 0.7 2.1 0
v 0.7 2.4 0
v 0.7 2.6 0
v 0.7 2.7 0
v 0.7 2.8 0
v 0.7 2.9 0
v 0.8 2.4 0
v 0.8 2.5 0
v 0.8 2.6 0
v 0.8 2.7 0
v 0.9 2.6 0
v 0.9 2.7 0
v 0.9 2.8 0
v 1 2 0
v 1 2.4 0
v 1 2.5 0
v 1 3 0
v 0 2 -1
v 0 3 -1
v 1 2 -1
v 1 3 -1
v 0 2 0
v 0.4 2 0
v 0.6 2 0
v 1 2 0
v 0.1 2 -0.1
v 0.4 2 -0.1
v 0.6 2 -0.1
v 0.9 2 -0.1
v 0.1 2 -0.9
v 0.9 2 -0.9
v 0 2 -1
v 1 2 -1
v 0 3 0
v 1 3 0
v 0.7 3 -0.1
v 0.8 3 -0.1
v 0.7 3 -0.2
v 0.8 3 -0.2
v 0.7 3 -0.3
v 0.8 3 -0.3
v 0.6 3 -0.5
v 0.7 3 -0.5
v 0.8 3 -0.5
v 0.6 3 -0.6
v 0.7 3 -0.6
v 0 3 -1
v 1 3 -1

# faces
f 3/2/1 2/2/1 1/2/1
f 4/2/1 2/2/1 3/2/1
f 5/3/1 4/3/1 3/3/1
f 6/2/1 2/2/1 4/2/1
f 6/3/1 4/3/1 5/3/1
f 7/2/1 6/2/1 5/2/1
f 8/2/1 2/2/1 6/2/1
f 8/2/1 6/2/1 7/2/1
f 9/2/2 10/2/2 11/2/2
f 11/2/2 10/2/2 12/2/2
f 11/3/2 12/3/2 13/3/2
f 12/2/2 10/2/2 14/2/2
f 13/3/2 12/3/2 14/3/2
f 13/2/2 14/2/2 15/2/2
f 14/2/2 10/2/2 16/2/2
f 15/2/2 14/2/2 16/2/2
f 21/2/3 20/2/3 19/2/3
f 22/2/3 20/2/3 21/2/3
f 23/2/3 20/2/3 22/2/3
f 24/2/3 18/2/3 17/2/3
f 24/3/3 19/3/3 18/3/3
f 25/2/3 21/2/3 19/2/3
f 25/3/3 19/3/3 24/3/3
f 26/6/3 22/6/3 21/6/3
f 26/2/3 21/2/3 25/2/3
f 27/9/3 23/9/3 22/9/3
f 27/6/3 22/6/3 26/6/3
f 28/2/3 26/2/3 25/2/3
f 28/2/3 24/2/3 17/2/3
f 28/2/3 25/2/3 24/2/3
f 29/2/3 26/2/3 28/2/3
f 30/8/3 27/8/3 26/8/3
f 30/2/3 26/2/3 29/2/3
f 31/9/3 23/9/3 27/9/3
f 31/8/3 27/8/3 30/8/3
f 32/2/3 20/2/3 23/2/3
f 32/9/3 23/9/3 31/9/3
f 33/2/3 20/2/3 32/2/3
f 34/2/3 28/2/3 17/2/3
f 35/6/3 29/6/3 28/6/3
f 35/2/3 28/2/3 34/2/3
f 36/6/3 29/6/3 35/6/3
f 37/6/3 29/6/3 36/6/3
f 38/2/3 31/2/3 30/2/3
f 38/6/3 29/6/3 37/6/3
f 38/2/3 30/2/3 29/2/3
f 39/2/3 31/2/3 38/2/3
f 40/9/3 32/9/3 31/9/3
f 40/2/3 31/2/3 39/2/3
f 40/9/3 33/9/3 32/9/3
f 41/2/3 20/2/3 33/2/3
f 41/9/3 33/9/3 40/9/3
f 42/6/3 35/6/3 34/6/3
f 43/4/3 36/4/3 35/4/3
f 43/6/3 35/6/3 42/6/3
f 44/5/3 37/5/3 36/5/3
f 44/4/3 36/4/3 43/4/3
f 45/7/3 38/7/3 37/7/3
f 45/5/3 37/5/3 44/5/3
f 46/6/3 39/6/3 38/6/3
f 46/7/3 38/7/3 45/7/3
f 47/2/3 40/2/3 39/2/3
f 47/6/3 39/6/3 46/6/3
f 47/2/3 41/2/3 40/2/3
f 48/2/3 41/2/3 47/2/3
f 49/2/3 20/2/3 41/2/3
f 49/2/3 41/2/3 48/2/3
f 50/2/3 43/2/3 42/2/3
f 50/6/3 46/6/3 45/6/3
f 50/6/3 45/6/3 44/6/3
f 50/6/3 44/6/3 43/6/3
f 51/2/3 47/2/3 46/2/3
f 51/6/3 46/6/3 50/6/3
f 51/2/3 48/2/3 47/2/3
f 52/2/3 48/2/3 51/2/3
f 53/9/3 49/9/3 48/9/3
f 53/2/3 48/2/3 52/2/3
f 54/9/3 49/9/3 53/9/3
f 55/2/3 20/2/3 49/2/3
f 55/9/3 49/9/3 54/9/3
f 56/2/3 52/2/3 51/2/3
f 56/2/3 51/2/3 50/2/3
f 57/2/3 52/2/3 56/2/3
f 58/8/3 53/8/3 52/8/3
f 58/2/3 52/2/3 57/2/3
f 59/9/3 54/9/3 53/9/3
f 59/8/3 53/8/3 58/8/3
f 60/2/3 58/2/3 57/2/3
f 60/6/3 59/6/3 58/6/3
f 61/9/3 54/9/3 59/9/3
f 61/6/3 59/6/3 60/6/3
f 62/2/3 55/2/3 54/2/3
f 62/9/3 54/9/3 61/9/3
f 63/2/3 50/2/3 42/2/3
f 63/2/3 56/2/3 50/2/3
f 64/3/3 57/3/3 56/3/3
f 64/2/3 56/2/3 63/2/3
f 65/2/3 60/2/3 57/2/3
f 65/3/3 57/3/3 64/3/3
f 65/2/3 61/2/3 60/2/3
f 65/2/3 62/2/3 61/2/3
f 66/2/3 20/2/3 55/2/3
f 66/2/3 62/2/3 65/2/3
f 66/2/3 55/2/3 62/2/3
f 67/2/4 68/2/4 69/2/4
f 69/2/4 68/2/4 70/2/4
f 75/2/5 72/2/5 71/2/5
f 76/6/5 73/6/5 72/6/5
f 76/2/5 72/2/5 75/2/5
f 77/2/5 74/2/5 73/2/5
f 77/6/5 73/6/5 76/6/5
f 78/2/5 74/2/5 77/2/5
f 79/8/5 76/8/5 75/8/5
f 79/2/5 75/2/5 71/2/5
f 79/8/5 78/8/5 77/8/5
f 79/8/5 77/8/5 76/8/5
f 80/2/5 74/2/5 78/2/5
f 80/8/5 78/8/5 79/8/5
f 81/2/5 79/2/5 71/2/5
f 81/2/5 80/2/5 79/2/5
f 82/2/5 74/2/5 80/2/5
f 82/2/5 80/2/5 81/2/5
f 83/2/6 84/2/6 85/2/6
f 85/2/6 84/2/6 86/2/6
f 83/2/6 85/2/6 87/2/6
f 85/1/6 86/1/6 87/1/6
f 86/2/6 84/2/6 88/2/6
f 87/1/6 86/1/6 88/1/6
f 83/2/6 87/2/6 89/2/6
f 87/2/6 88/2/6 89/2/6
f 88/2/6 84/2/6 90/2/6
f 89/2/6 88/2/6 90/2/6
f 83/2/6 89/2/6 91/2/6
f 89/1/6 90/1/6 92/1/6
f 91/2/6 89/2/6 92/2/6
f 90/2/6 84/2/6 93/2/6
f 92/1/6 90/1/6 93/1/6
f 91/1/6 92/1/6 94/1/6
f 83/2/6 91/2/6 94/2/6
f 92/2/6 93/2/6 95/2/6
f 94/1/6 92/1/6 95/1/6
f 83/2/6 94/2/6 96/2/6
f 94/2/6 95/2/6 96/2/6
f 93/2/6 84/2/6 97/2/6
f 96/2/6 95/2/6 97/2/6
f 95/2/6 93/2/6 97/2/6
